<?xml version="1.0" encoding="UTF-8" standalone="no"?>
<!-- Created with Inkscape (http://www.inkscape.org/) -->

<svg
   width="200"
   height="200"
   viewBox="0 0 52.916665 52.916668"
   version="1.1"
   id="svg5"
   inkscape:version="1.1.1 (3bf5ae0d25, 2021-09-20)"
   sodipodi:docname="settings.svg"
   xmlns:inkscape="http://www.inkscape.org/namespaces/inkscape"
   xmlns:sodipodi="http://sodipodi.sourceforge.net/DTD/sodipodi-0.dtd"
   xmlns="http://www.w3.org/2000/svg"
   xmlns:svg="http://www.w3.org/2000/svg">
  <sodipodi:namedview
     id="namedview7"
     pagecolor="#505050"
     bordercolor="#eeeeee"
     borderopacity="1"
     inkscape:pageshadow="0"
     inkscape:pageopacity="0"
     inkscape:pagecheckerboard="0"
     inkscape:document-units="mm"
     showgrid="false"
     units="px"
     inkscape:zoom="1.96344"
     inkscape:cx="65.191706"
     inkscape:cy="144.89875"
     inkscape:window-width="2560"
     inkscape:window-height="1009"
     inkscape:window-x="-8"
     inkscape:window-y="1072"
     inkscape:window-maximized="1"
     inkscape:current-layer="layer1" />
  <defs
     id="defs2" />
  <g
     inkscape:label="Camada 1"
     inkscape:groupmode="layer"
     id="layer1">
    <g
       style="fill:none"
       id="g1841"
       transform="matrix(1.7322845,0,0,1.7322845,0.4781367,0.48063119)">
      <path
         d="m 12.3533,1.77422 v 1.76279 1.76308 h -1.7631 v 1.7628 h 1.7631 1.7628 V 5.30009 3.53701 h 1.7631 v 1.76308 1.7628 h 1.7628 1.7631 V 5.30009 H 17.642 V 3.53701 1.77422 h -1.7628 -1.7631 z m 7.0518,5.28867 v 1.76308 h 1.7628 V 7.06289 Z m 1.7628,0 h 1.7628 v 1.76308 h 1.7631 V 7.06289 5.30009 h -1.7631 -1.7628 z m 1.7628,1.76308 h -1.7628 v 1.76283 h 1.7628 z m 0,1.76283 v 1.7631 1.7627 h 1.7631 1.7628 v 1.7631 h -1.7628 -1.7631 v 1.7628 1.7631 h 1.7631 v -1.7631 h 1.7628 1.763 v -1.7628 -1.7631 -1.7627 h -1.763 -1.7628 v -1.7631 z m 0,8.8148 h -1.7628 v 1.7628 h 1.7628 z m 0,1.7628 v 1.7631 h -1.7628 v 1.7628 h 1.7628 1.7631 v -1.7628 -1.7631 z m -1.7628,1.7631 v -1.7631 h -1.7628 v 1.7631 z m -1.7628,0 H 17.642 15.8792 v 1.7628 1.7631 h -1.7631 v -1.7631 -1.7628 h -1.7628 -1.7631 v 1.7628 h 1.7631 v 1.7631 1.7628 h 1.7628 1.7631 1.7628 v -1.7628 -1.7631 h 1.7631 z m -8.8149,0 V 21.1664 H 8.82745 v 1.7631 z m -1.76275,0 H 7.06437 v -1.7631 h -1.7628 v 1.7631 1.7628 h 1.7628 1.76308 z M 7.06437,21.1664 H 8.82745 V 19.4036 H 7.06437 Z m 0,-1.7628 V 17.6405 15.8777 H 5.30157 3.53849 v -1.7631 h 1.76308 1.7628 v -1.7627 -1.7631 h -1.7628 v 1.7631 H 3.53849 1.7757 v 1.7627 1.7631 1.7628 h 1.76279 1.76308 v 1.7631 z m 0,-8.8148 H 8.82745 V 8.82597 H 7.06437 Z m 0,-1.76283 V 7.06289 H 8.82745 V 5.30009 H 7.06437 5.30157 v 1.7628 1.76308 z M 8.82745,7.06289 V 8.82597 H 10.5902 V 7.06289 Z m 3.52585,3.52591 v 1.7631 h 1.7628 1.7631 1.7628 v -1.7631 h -1.7628 -1.7631 z m 5.2887,1.7631 v 1.7627 1.7631 1.7628 h 1.7631 v -1.7628 -1.7631 -1.7627 z m 0,5.2886 h -1.7628 -1.7631 -1.7628 v 1.7631 h 1.7628 1.7631 1.7628 z m -5.2887,0 v -1.7628 -1.7631 -1.7627 h -1.7631 v 1.7627 1.7631 1.7628 z"
         fill="#ffffff"
         id="path1839" />
    </g>
  </g>
</svg>
